<?xml version="1.0" encoding="UTF-8" standalone="no"?>
<!-- Uploaded to: SVG Repo, www.svgrepo.com, Generator: SVG Repo Mixer Tools -->

<svg
   width="800px"
   height="800px"
   viewBox="0 0 20 20"
   version="1.1"
   id="svg8"
   sodipodi:docname="plugin.svg"
   inkscape:version="1.2.2 (b0a8486541, 2022-12-01)"
   xmlns:inkscape="http://www.inkscape.org/namespaces/inkscape"
   xmlns:sodipodi="http://sodipodi.sourceforge.net/DTD/sodipodi-0.dtd"
   xmlns="http://www.w3.org/2000/svg"
   xmlns:svg="http://www.w3.org/2000/svg">
  <defs
     id="defs12" />
  <sodipodi:namedview
     id="namedview10"
     pagecolor="#505050"
     bordercolor="#eeeeee"
     borderopacity="1"
     inkscape:showpageshadow="0"
     inkscape:pageopacity="0"
     inkscape:pagecheckerboard="0"
     inkscape:deskcolor="#505050"
     showgrid="false"
     inkscape:zoom="1.015"
     inkscape:cx="394.58128"
     inkscape:cy="400"
     inkscape:window-width="1870"
     inkscape:window-height="1011"
     inkscape:window-x="50"
     inkscape:window-y="37"
     inkscape:window-maximized="1"
     inkscape:current-layer="svg8" />
  <rect
     x="0"
     fill="none"
     width="20"
     height="20"
     id="rect2" />
  <g
     id="g6"
     style="fill:#b3b3b3">
    <path
       d="M13.11 4.36L9.87 7.6 8 5.73l3.24-3.24c.35-.34 1.05-.2 1.56.32.52.51.66 1.21.31 1.55zm-8 1.77l.91-1.12 9.01 9.01-1.19.84c-.71.71-2.63 1.16-3.82 1.16H6.14L4.9 17.26c-.59.59-1.54.59-2.12 0-.59-.58-.59-1.53 0-2.12l1.24-1.24v-3.88c0-1.13.4-3.19 1.09-3.89zm7.26 3.97l3.24-3.24c.34-.35 1.04-.21 1.55.31.52.51.66 1.21.31 1.55l-3.24 3.25z"
       id="path4"
       style="fill:#b3b3b3" />
  </g>
</svg>