<svg xmlns="http://www.w3.org/2000/svg" xmlns:xlink="http://www.w3.org/1999/xlink" style="isolation:isolate" width="48" height="48" viewBox="0 0 48 48"><defs><clipPath id="_clipPath_oQOpAlaS5aQPNgwhNjsJr8QwgeI7VsJ1"><rect width="48" height="48"/></clipPath></defs><g clip-path="url(#_clipPath_oQOpAlaS5aQPNgwhNjsJr8QwgeI7VsJ1)"><rect width="48" height="48" style="fill:#000" fill-opacity="0"/><path d="M 4 0 L 44 0 C 46.208 0 48 1.792 48 4 L 48 44 C 48 46.208 46.208 48 44 48 L 4 48 C 1.792 48 0 46.208 0 44 L 0 4 C 0 1.792 1.792 0 4 0 Z" style="stroke:none;fill:#2e2e32;stroke-miterlimit:10"/><path fill="#E1E1E6" d="M 19 27 L 19 15 C 19 13.896 18.104 13 17 13 L 13 13 L 13 30 C 13 32.76 15.24 35 18 35 L 35 35 L 35 31 C 35 29.896 34.104 29 33 29 L 21 29 C 19.896 29 19 28.104 19 27 Z"/><path fill="#93DDFA" d="M 24 22 L 24 16 L 29 19 L 32 24 L 26 24 C 24.896 24 24 23.104 24 22 Z"/><path fill="#FFA94D" d="M 35 13 L 21 13 L 35 27 L 35 13 Z"/><path fill="#F7C95C" d="M 32 16 L 24 16 L 32 24 L 32 16 Z"/></g></svg>